<?xml version="1.0" encoding="utf-8"?>
<!-- Generator: Adobe Illustrator 18.0.0, SVG Export Plug-In . SVG Version: 6.00 Build 0)  -->
<!DOCTYPE svg PUBLIC "-//W3C//DTD SVG 1.1//EN" "http://www.w3.org/Graphics/SVG/1.1/DTD/svg11.dtd">
<svg version="1.1" id="圖層_1" xmlns="http://www.w3.org/2000/svg" xmlns:xlink="http://www.w3.org/1999/xlink" x="0px" y="0px"
	 viewBox="0 0 512 512" enable-background="new 0 0 512 512" xml:space="preserve">
<g>
	<path fill="#967D7A" d="M295,500.8c-26.2,15.2-52.5,15.1-78.5,0.1C165.6,471.5,114.8,442,64,412.5c-26-15.1-39.2-37.9-39.4-68
		c-0.2-58.8-0.3-117.5-0.3-176.3c0-30.1,13-52.9,39.2-68.1c51.2-29.5,102.3-59,153.4-88.6c26.2-15.2,52.5-15.1,78.5-0.1
		C346.4,40.7,397.2,70.3,448,99.8c26,15.1,39.3,37.9,39.4,68c0.2,58.8,0.3,117.5,0.3,176.3c0,30.1-13,52.9-39.2,68.1
		C422.7,427,320.4,486.1,295,500.8z"/>
	<ellipse fill="#B5A8A4" cx="255.8" cy="255.9" rx="63.3" ry="256"/>
	
		<ellipse transform="matrix(0.5 -0.866 0.866 0.5 -93.6718 349.4608)" opacity="0.6" fill="#C7C1C0" cx="255.8" cy="255.9" rx="63.3" ry="256"/>
	
		<ellipse transform="matrix(-0.5 -0.866 0.866 -0.5 162.1342 605.3134)" opacity="0.5" fill="#D8D5D4" cx="255.8" cy="255.9" rx="63.3" ry="256"/>
</g>
</svg>
